<svg width="25" height="26" viewBox="0 0 25 26" fill="none" xmlns="http://www.w3.org/2000/svg">
<path d="M12.5 0.890625C5.81055 0.890625 0.390625 6.31055 0.390625 13C0.390625 19.6895 5.81055 25.1094 12.5 25.1094C19.1895 25.1094 24.6094 19.6895 24.6094 13C24.6094 6.31055 19.1895 0.890625 12.5 0.890625ZM12.5 5.57812C14.873 5.57812 16.7969 7.50195 16.7969 9.875C16.7969 12.248 14.873 14.1719 12.5 14.1719C10.127 14.1719 8.20312 12.248 8.20312 9.875C8.20312 7.50195 10.127 5.57812 12.5 5.57812ZM12.5 22.375C9.63379 22.375 7.06543 21.0762 5.34668 19.0449C6.26465 17.3164 8.06152 16.125 10.1562 16.125C10.2734 16.125 10.3906 16.1445 10.5029 16.1787C11.1377 16.3838 11.8018 16.5156 12.5 16.5156C13.1982 16.5156 13.8672 16.3838 14.4971 16.1787C14.6094 16.1445 14.7266 16.125 14.8438 16.125C16.9385 16.125 18.7354 17.3164 19.6533 19.0449C17.9346 21.0762 15.3662 22.375 12.5 22.375Z" fill="white"/>
</svg>
