<svg width="25" height="22" viewBox="0 0 25 22" fill="none" xmlns="http://www.w3.org/2000/svg">
<path d="M24.3086 11.6193L19.8086 9.77363C19.6484 9.70801 19.3164 9.62188 18.9414 9.77363L14.4414 11.6193C14.0234 11.7916 13.75 12.1936 13.75 12.6406C13.75 17.218 16.4336 20.3844 18.9414 21.4139C19.3164 21.5656 19.6445 21.4795 19.8086 21.4139C21.8125 20.5936 25 17.7471 25 12.6406C25 12.1936 24.7266 11.7916 24.3086 11.6193ZM19.375 19.4656V11.7096L23.1055 13.2395C22.8867 16.8119 20.7266 18.793 19.375 19.4656ZM8.75 11C11.5117 11 13.75 8.64981 13.75 5.75C13.75 2.8502 11.5117 0.5 8.75 0.5C5.98828 0.5 3.75 2.8502 3.75 5.75C3.75 8.64981 5.98828 11 8.75 11ZM12.5 12.6406C12.5 12.5381 12.5313 12.4437 12.543 12.3453C12.4453 12.3412 12.3516 12.3125 12.25 12.3125H11.5977C10.7305 12.7309 9.76562 12.9688 8.75 12.9688C7.73438 12.9688 6.77344 12.7309 5.90234 12.3125H5.25C2.35156 12.3125 0 14.7816 0 17.825V19.5312C0 20.6182 0.839844 21.5 1.875 21.5H15.625C15.8906 21.5 16.1445 21.4385 16.375 21.3359C14.2656 19.5764 12.5 16.5494 12.5 12.6406Z" fill="white"/>
</svg>
