<svg width="15" height="16" viewBox="0 0 15 16" fill="none" xmlns="http://www.w3.org/2000/svg">
<path d="M7.38299 11.016C7.39689 11.0353 7.41465 11.051 7.43492 11.0618C7.4552 11.0725 7.47745 11.0781 7.50001 11.0781C7.52256 11.0781 7.54482 11.0725 7.56509 11.0618C7.58537 11.051 7.60313 11.0353 7.61703 11.016L9.69737 8.14776C9.77353 8.04251 9.7048 7.88665 9.58035 7.88665H8.20398V1.03693C8.20398 0.947869 8.13711 0.875 8.05539 0.875H6.94091C6.85918 0.875 6.79232 0.947869 6.79232 1.03693V7.88462H5.41966C5.29521 7.88462 5.22648 8.04048 5.30264 8.14574L7.38299 11.016ZM14.2983 10.3075H13.1838C13.1021 10.3075 13.0352 10.3804 13.0352 10.4695V13.5866H1.9648V10.4695C1.9648 10.3804 1.89793 10.3075 1.8162 10.3075H0.701727C0.619999 10.3075 0.553131 10.3804 0.553131 10.4695V14.4773C0.553131 14.8355 0.818747 15.125 1.14752 15.125H13.8525C14.1813 15.125 14.4469 14.8355 14.4469 14.4773V10.4695C14.4469 10.3804 14.38 10.3075 14.2983 10.3075Z" fill="white"/>
</svg>
