<svg width="24" height="24" viewBox="0 0 24 24" fill="none" xmlns="http://www.w3.org/2000/svg">
<path d="M21.1384 17.6473H19.3338C19.2106 17.6473 19.0951 17.7012 19.0181 17.7962C18.8384 18.0144 18.6459 18.2249 18.4431 18.4251C17.6137 19.2553 16.6312 19.917 15.5501 20.3734C14.43 20.8465 13.2262 21.0892 12.0103 21.0871C10.7807 21.0871 9.58963 20.8458 8.47043 20.3734C7.3893 19.917 6.40686 19.2553 5.57746 18.4251C4.74657 17.5977 4.08404 16.617 3.62657 15.5373C3.15168 14.4181 2.91295 13.2296 2.91295 12C2.91295 10.7704 3.15425 9.58192 3.62657 8.46272C4.08349 7.38203 4.74063 6.40915 5.57746 5.57489C6.41429 4.74062 7.38717 4.08348 8.47043 3.62656C9.58963 3.15424 10.7807 2.91294 12.0103 2.91294C13.2399 2.91294 14.4309 3.15167 15.5501 3.62656C16.6334 4.08348 17.6063 4.74062 18.4431 5.57489C18.6459 5.77768 18.8358 5.98817 19.0181 6.20379C19.0951 6.29877 19.2132 6.35268 19.3338 6.35268H21.1384C21.3001 6.35268 21.4002 6.17299 21.3104 6.03694C19.3415 2.97712 15.8967 0.951784 11.982 0.962052C5.83159 0.977454 0.900451 5.9702 0.962058 12.1129C1.02366 18.1581 5.9471 23.0379 12.0103 23.0379C15.9146 23.0379 19.3441 21.0152 21.3104 17.9631C21.3977 17.827 21.3001 17.6473 21.1384 17.6473ZM23.4204 11.8383L19.7779 8.96328C19.6419 8.85547 19.4442 8.95301 19.4442 9.125V11.0759H11.3839C11.271 11.0759 11.1786 11.1683 11.1786 11.2812V12.7187C11.1786 12.8317 11.271 12.9241 11.3839 12.9241H19.4442V14.875C19.4442 15.047 19.6444 15.1445 19.7779 15.0367L23.4204 12.1617C23.445 12.1425 23.4648 12.118 23.4785 12.0899C23.4921 12.0619 23.4992 12.0312 23.4992 12C23.4992 11.9688 23.4921 11.9381 23.4785 11.9101C23.4648 11.882 23.445 11.8575 23.4204 11.8383Z" fill="white"/>
</svg>
